<?xml version="1.0" encoding="UTF-8" standalone="no"?>
<!-- Created with Inkscape (http://www.inkscape.org/) -->

<svg
   xmlns:dc="http://purl.org/dc/elements/1.1/"
   xmlns:cc="http://creativecommons.org/ns#"
   xmlns:rdf="http://www.w3.org/1999/02/22-rdf-syntax-ns#"
   xmlns:svg="http://www.w3.org/2000/svg"
   xmlns="http://www.w3.org/2000/svg"
   version="1.1"
   width="32"
   height="32"
   id="svg3119">
  <defs
     id="defs3121" />
  <metadata
     id="metadata3124">
    <rdf:RDF>
      <cc:Work
         rdf:about="">
        <dc:format>image/svg+xml</dc:format>
        <dc:type
           rdf:resource="http://purl.org/dc/dcmitype/StillImage" />
        <dc:title></dc:title>
      </cc:Work>
    </rdf:RDF>
  </metadata>
  <g
     transform="translate(7.0508475,8)"
     id="layer1">
    <g
       transform="translate(-235.61628,-24.166321)"
       id="g72"
       style="fill:#ff0000">
      <path
         d="m 247.696,44.797 c 2.18,1.505 6.493,-0.954 9.634,-5.503 3.141,-4.548 3.919,-9.451 1.739,-10.956 -2.181,-1.505 -6.386,0.829 -9.526,5.377 -3.14,4.548 -4.027,9.576 -1.847,11.082"
         id="path74"
         style="fill:#ff0000" />
      <path
         d="m 241.905,44.797 c -2.181,1.505 -6.494,-0.954 -9.635,-5.503 -3.141,-4.548 -3.919,-9.451 -1.738,-10.956 2.18,-1.505 6.385,0.829 9.525,5.377 3.14,4.548 4.026,9.576 1.848,11.082"
         id="path76"
         style="fill:#ff0000" />
      <path
         d="m 254.819,24.394 c 0,-2.646 -4.485,-4.791 -10.019,-4.791 -5.532,0 -10.018,2.145 -10.018,4.791 0,2.646 4.485,4.791 10.018,4.791 5.533,0 10.019,-2.145 10.019,-4.791"
         id="path78"
         style="fill:#ff0000" />
    </g>
  </g>
</svg>
